# xmcd CD database file
#
# Track frame offsets:
#	150
#	20916
#	41592
#	63300
#	88635
#	105698
#	128439
#	142381
#	166043
#	179474
#	200814
#	220841
#
# Disc length: 3148 seconds
#
# Revision: 0
# Processed by: cddbd v1.4PL0 Copyright (c) Steve Scherf et al.
# Submitted via: Feurio! 1.66 - http://www.feurio.com
#
DISCID=b00c4a0c
DTITLE=Beck - Sea Change
DYEAR=1900
DGENRE=
TTITLE0=The Golden Age
TTITLE1=Paper Tiger
TTITLE2=Guess I'm Doing Fine
TTITLE3=Lonesome Tears
TTITLE4=Lost Cause
TTITLE5=Nothing I Haven't Seen
TTITLE6=All In Your Mind
TTITLE7=Round The Bend
TTITLE8=Already Dead
TTITLE9=Sunday Sun
TTITLE10=Little One
TTITLE11=Side Of The Road
EXTD=
EXTT0=
EXTT1=
EXTT2=http://members.home.nl/gmmheldens
EXTT3=http://members.home.nl/gmmheldens
EXTT4=http://members.home.nl/gmmheldens
EXTT5=http://members.home.nl/gmmheldens
EXTT6=http://members.home.nl/gmmheldens
EXTT7=http://members.home.nl/gmmheldens
EXTT8=http://members.home.nl/gmmheldens
EXTT9=http://members.home.nl/gmmheldens
EXTT10=http://members.home.nl/gmmheldens
EXTT11=http://members.home.nl/gmmheldens
PLAYORDER=
